<?xml version="1.0" encoding="utf-8"?>
<?xml-stylesheet type="text/xsl" href="rss1.xsl"?>
<rss version="2.0" xmlns:atom="http://www.w3.org/2005/Atom" xmlns:content="http://purl.org/rss/1.0/modules/content/" xmlns:dc="http://purl.org/dc/elements/1.1/" xmlns:media="http://search.yahoo.com/mrss/">
<channel>
 <title>Getty</title>
 <link>http://www.gettyimg.com/</link>
 <atom:link href="http://www.gettyimg.com/" rel="self" type="application/rss+xml" />

 
                <item>
                <title><![CDATA[【HD Live Performances】WEB-RiP - Skepta - Coachella 2024 Weekend 1 1080p]]></title>
                <link><![CDATA[https://sharemania.us/threads/skepta-coachella-2024-weekend-1-1080p.242061/]]></link>
                <description><![CDATA[<article>
<blockquote class="messageText SelectQuoteContainer ugc baseHtml">
Skepta<br>
Coachella Valley Music and Arts Festival, Empire Polo Club, Indio, California, USA<br>
2024-04-12<br>
<br>
<img src="https://images2.imgbox.com/83/0d/gTkTzzAN_o.png" class="bbCodeImage LbImage" alt="[​IMG]" data-url="https://images2.imgbox.com/83/0d/gTkTzzAN_o.png" style=""> <br>
<br>
<b>Source:</b> Youtube Livestream &gt; yt-dlp &gt; ffmpeg &gt; LosslessCut<br>
<br>
<b><span style="text-decoration: underline">Setlist</span></b><br>
Skepta Interlude (Drake cover)<br>
Peace of Mind<br>
Jangrova<br>
Lean 4 Real (Playboi Carti cover)<br>
That's Not Me<br>
It Ain't Safe<br>
No Security<br>
Going Through It<br>
Bullet From a Gun<br>
Papi chulo<br>
Energy (Stay Far Away)<br>
Tony Montana<br>
Gas Me Up<br>
Greaze Mode<br>
Praise the Lord (Da Shine) (A$AP Rocky cover)<br>
<br>
<div class="ToggleTriggerAnchor bbCodeSpoilerContainer">
<button type="button" class="button bbCodeSpoilerButton ToggleTrigger Tooltip JsOnly" data-target="> .SpoilerTarget"><span>Spoiler: <span class="SpoilerTitle">MediaInfo</span></span></button>
<div class="SpoilerTarget bbCodeSpoilerText"><b><span style="text-decoration: underline">General</span></b><br>
Format: MPEG-4<br>
Format profile: Base Media<br>
Codec ID: isom (isom/iso2/avc1/mp41)<br>
File size: 1.07 GiB<br>
Duration: 44 min 53 s<br>
Overall bit rate: 3 397 kb/s<br>
Frame rate: 30.000 FPS<br>
Writing application: Lavf60.3.100<br>
<br>
<b><span style="text-decoration: underline">Video</span></b><br>
ID: 1<br>
Format: AVC<br>
Format/Info: Advanced Video Codec<br>
Format profile: High@L4<br>
Format settings: CABAC / 1 Ref Frames<br>
Format settings, CABAC: Yes<br>
Format settings, Reference frames: 1 frame<br>
Codec ID: avc1<br>
Codec ID/Info: Advanced Video Coding<br>
Duration: 44 min 53 s<br>
Source duration: 44 min 53 s<br>
Bit rate: 3 262 kb/s<br>
Width: 1 920 pixels<br>
Height: 1 080 pixels<br>
Display aspect ratio: 16:9<br>
Frame rate mode: Variable<br>
Frame rate: 30.000 FPS<br>
Minimum frame rate: 18.360 FPS<br>
Maximum frame rate: 30.000 FPS<br>
Color space: YUV<br>
Chroma subsampling: 4:2:0<br>
Bit depth: 8 bits<br>
Scan type: Progressive<br>
Bits/(Pixel*Frame): 0.052<br>
Stream size: 1.02 GiB (96%)<br>
Source stream size: 1.02 GiB (96%)<br>
Color range: Limited<br>
Color primaries: BT.709<br>
Transfer characteristics: BT.709<br>
Matrix coefficients: BT.709<br>
Codec configuration box: avcC<br>
<br>
<b><span style="text-decoration: underline">Audio</span></b><br>
ID: 2<br>
Format: AAC LC<br>
Format/Info: Advanced Audio Codec Low Complexity<br>
Codec ID: mp4a-40-2<br>
Duration: 44 min 53 s<br>
Bit rate mode: Constant<br>
Bit rate: 128 kb/s<br>
Channel(s): 2 channels<br>
Channel layout: L R<br>
Sampling rate: 44.1 kHz<br>
Frame rate: 43.066 FPS (1024 SPF)<br>
Compression mode: Lossy<br>
Stream size: 41.1 MiB (4%)<br>
Default: Yes<br>
Alternate group: 1</div>
</div><br>
<div class="bbCodeBlock bbCodeVfcHH HiddenContent">
<div class="attribution type">Hidden Content:</div>
<blockquote>You must reply before you can see the hidden data contained here.</blockquote>
</div>
<div class="messageTextEndMarker">&nbsp;</div>
</blockquote>
</article>]]></description>
                <author><![CDATA[coolguy789]]></author>
                </item>

                </channel></rss>